<svg width="344" height="205" viewBox="0 0 344 205" fill="none" xmlns="http://www.w3.org/2000/svg">
<g clip-path="url(#clip0_13_134)">
<path d="M263.374 202.682C258.97 198.972 256.295 193.113 256.997 187.408C257.698 181.703 262.043 176.459 267.68 175.248C273.316 174.036 279.741 177.39 281.453 182.878C282.395 172.297 283.481 161.273 289.125 152.262C294.235 144.103 303.086 138.265 312.678 137.221C322.271 136.177 332.37 140.121 338.353 147.668C344.335 155.215 345.8 166.186 341.61 174.851C338.524 181.233 332.837 185.983 326.879 189.848C307.626 202.23 284.535 207.265 261.853 204.027L263.374 202.682Z" fill="#F2F2F2"/>
<path d="M328.867 140.34C320.952 146.766 313.691 153.953 307.189 161.797C297.013 174.031 288.778 187.747 282.772 202.468C282.332 203.542 284.082 204.01 284.517 202.948C294.344 179.023 310.032 157.936 330.147 141.615C331.05 140.882 329.763 139.613 328.867 140.34Z" fill="white"/>
<path d="M110.739 201.674C116.788 196.579 120.463 188.53 119.499 180.695C118.535 172.86 112.567 165.657 104.826 163.993C97.0842 162.329 88.2594 166.935 85.908 174.473C84.6139 159.94 83.1228 144.799 75.3712 132.422C68.3523 121.216 56.1955 113.198 43.0202 111.763C29.845 110.329 15.9732 115.747 7.75624 126.112C-0.460682 136.478 -2.47256 151.547 3.28236 163.447C7.5218 172.214 15.3324 178.738 23.5159 184.046C49.6241 200.98 82.0113 208.042 112.828 203.522" fill="#F2F2F2"/>
<path d="M20.7851 116.047C31.6563 124.873 41.6295 134.745 50.5604 145.518C59.4927 156.281 67.3567 167.882 74.0418 180.158C77.7785 187.045 81.1352 194.13 84.097 201.381C84.7009 202.856 82.298 203.498 81.7008 202.039C76.4547 189.255 69.9642 177.015 62.3225 165.493C54.7179 154.013 46.0141 143.295 36.3332 133.491C30.8577 127.948 25.0805 122.709 19.0279 117.799C17.7873 116.792 19.5547 115.048 20.7851 116.047Z" fill="white"/>
<path d="M246.929 204.551H102.607V56.9512C102.607 25.5481 128.238 0 159.742 0H189.793C221.298 0 246.929 25.5481 246.929 56.9512V204.551Z" fill="#F2F2F2"/>
<path d="M216.878 204.551H102.607V56.9511C102.575 44.9182 106.398 33.1894 113.518 23.4723C113.781 23.1157 114.043 22.7638 114.313 22.4156C117.757 17.9132 121.855 13.9479 126.473 10.6508C126.734 10.4616 126.996 10.2757 127.261 10.0898C131.125 7.42447 135.305 5.24564 139.705 3.60287C139.967 3.50414 140.233 3.40522 140.499 3.31034C144.479 1.89467 148.604 0.924948 152.799 0.419069C153.059 0.383657 153.326 0.355946 153.593 0.328235C157.681 -0.107459 161.804 -0.107459 165.892 0.328235C166.159 0.355946 166.426 0.383654 166.689 0.419448C170.883 0.92536 175.007 1.89497 178.986 3.31036C179.252 3.40524 179.518 3.50415 179.78 3.60307C184.126 5.22512 188.257 7.37144 192.08 9.99414C192.345 10.176 192.611 10.3619 192.873 10.5478C195.462 12.3895 197.893 14.4412 200.142 16.682C201.946 18.4794 203.627 20.3953 205.173 22.4168C205.442 22.7638 205.704 23.1158 205.966 23.4718C213.087 33.1889 216.91 44.9179 216.878 56.9511V204.551Z" fill="#CCCCCC"/>
<path d="M207.586 138.535C211.08 138.535 213.913 135.712 213.913 132.229C213.913 128.746 211.08 125.923 207.586 125.923C204.092 125.923 201.26 128.746 201.26 132.229C201.26 135.712 204.092 138.535 207.586 138.535Z" fill="#FFB800"/>
<path d="M235.106 200.13H230.258L227.952 181.493L235.107 181.493L235.106 200.13Z" fill="#FFB8B8"/>
<path d="M226.795 198.75H236.144V204.617H220.909C220.909 203.847 221.061 203.084 221.357 202.372C221.653 201.66 222.087 201.013 222.633 200.468C223.18 199.923 223.829 199.491 224.543 199.196C225.257 198.902 226.022 198.75 226.795 198.75Z" fill="#2F2E41"/>
<path d="M259.225 200.13H254.378L252.071 181.493L259.226 181.493L259.225 200.13Z" fill="#FFB8B8"/>
<path d="M250.915 198.75H260.264V204.617H245.029C245.029 203.847 245.181 203.084 245.477 202.372C245.773 201.66 246.206 201.013 246.753 200.468C247.299 199.923 247.948 199.491 248.663 199.196C249.377 198.902 250.142 198.75 250.915 198.75Z" fill="#2F2E41"/>
<path d="M210.788 133.478C210.439 132.966 210.207 132.384 210.109 131.773C210.01 131.162 210.047 130.537 210.217 129.941C210.387 129.346 210.686 128.795 211.093 128.327C211.5 127.86 212.004 127.487 212.571 127.234L229.05 81.9624L237.159 86.3732L218.344 129.637C218.706 130.614 218.695 131.69 218.315 132.661C217.934 133.632 217.209 134.429 216.278 134.903C215.346 135.376 214.273 135.493 213.261 135.23C212.25 134.968 211.37 134.345 210.788 133.478Z" fill="#FFB8B8"/>
<path d="M256.749 141.985C256.21 141.677 255.746 141.255 255.388 140.749C255.031 140.243 254.789 139.665 254.68 139.056C254.571 138.446 254.597 137.821 254.757 137.222C254.917 136.624 255.207 136.068 255.605 135.594L250.5 87.7039L259.728 88.1241L261.85 135.23C262.605 135.951 263.069 136.922 263.154 137.961C263.239 139 262.938 140.033 262.309 140.866C261.681 141.699 260.767 142.272 259.743 142.479C258.718 142.685 257.653 142.509 256.749 141.985Z" fill="#FFB8B8"/>
<path d="M242.028 73.5768C247.392 73.5768 251.74 69.2429 251.74 63.8967C251.74 58.5505 247.392 54.2166 242.028 54.2166C236.665 54.2166 232.317 58.5505 232.317 63.8967C232.317 69.2429 236.665 73.5768 242.028 73.5768Z" fill="#FFB8B8"/>
<path d="M256.687 131.094H227.409L227.444 130.867C227.497 130.527 232.662 96.7987 228.852 85.7644C228.47 84.68 228.504 83.493 228.947 82.4319C229.39 81.3708 230.211 80.5105 231.252 80.0166C236.697 77.4606 247.15 74.3132 255.973 81.9515C257.271 83.094 258.285 84.5219 258.934 86.1223C259.583 87.7226 259.85 89.4516 259.713 91.1724L256.687 131.094Z" fill="#FFB800"/>
<path d="M233.032 101.783L219.851 99.1177L226.029 84.5233C226.399 83.1097 227.316 81.9001 228.579 81.1596C229.843 80.4192 231.349 80.2084 232.768 80.5736C234.187 80.9387 235.403 81.85 236.149 83.1074C236.895 84.3649 237.11 85.8659 236.747 87.2812L233.032 101.783Z" fill="#FFB800"/>
<path d="M249.914 106.732L249.122 88.6257C248.521 85.222 250.476 82.0043 253.482 81.4783C256.489 80.9543 259.426 83.315 260.029 86.7438L263.008 103.663L249.914 106.732Z" fill="#FFB800"/>
<path d="M255.713 128.926C260.424 146.81 260.938 169.548 259.667 194.351L253.341 193.562L241.874 146.267L235.547 194.351L228.43 193.957C226.304 167.933 224.234 145.591 227.639 130.896L255.713 128.926Z" fill="#2F2E41"/>
<path d="M248.427 71.3778C246.615 73.3015 243.251 72.2688 243.015 69.6408C242.996 69.4368 242.997 69.2315 243.019 69.0277C243.14 67.8636 243.815 66.8068 243.654 65.5777C243.617 65.2718 243.503 64.9803 243.321 64.7307C241.878 62.8037 238.489 65.5926 237.126 63.8482C236.291 62.7785 237.273 61.0944 236.632 59.8988C235.785 58.3209 233.279 59.0993 231.707 58.2352C229.959 57.2737 230.063 54.5993 231.214 52.9725C232.618 50.9887 235.08 49.9301 237.51 49.7775C239.941 49.6249 242.355 50.2799 244.625 51.1615C247.203 52.1631 249.76 53.5473 251.347 55.8072C253.276 58.5555 253.462 62.2504 252.497 65.464C251.91 67.4189 249.906 69.807 248.427 71.3778Z" fill="#2F2E41"/>
<path d="M332.131 204.805H40.2075C40.0828 204.804 39.9635 204.755 39.8755 204.667C39.7875 204.579 39.738 204.46 39.738 204.335C39.738 204.211 39.7875 204.092 39.8755 204.004C39.9635 203.916 40.0828 203.867 40.2075 203.866H332.131C332.255 203.867 332.375 203.916 332.463 204.004C332.551 204.092 332.6 204.211 332.6 204.335C332.6 204.46 332.551 204.579 332.463 204.667C332.375 204.755 332.255 204.804 332.131 204.805Z" fill="#3F3D56"/>
<path d="M185.444 161.789H134.041C133.364 161.792 132.714 161.528 132.232 161.054C131.75 160.58 131.476 159.935 131.471 159.26V44.8969C131.476 44.2221 131.75 43.577 132.232 43.103C132.714 42.629 133.364 42.3648 134.041 42.3684H185.444C186.121 42.3648 186.771 42.629 187.253 43.103C187.735 43.577 188.008 44.2221 188.014 44.8969V159.26C188.008 159.935 187.735 160.58 187.253 161.054C186.771 161.528 186.121 161.792 185.444 161.789Z" fill="white"/>
<path d="M188.014 79.3728H131.471V80.1611H188.014V79.3728Z" fill="#CCCCCC"/>
<path d="M188.211 124.347H131.669V125.135H188.211V124.347Z" fill="#CCCCCC"/>
<path d="M150.055 42.3684H149.264V162.183H150.055V42.3684Z" fill="#CCCCCC"/>
<path d="M169.825 42.3684H169.034V162.183H169.825V42.3684Z" fill="#CCCCCC"/>
</g>
<defs>
<clipPath id="clip0_13_134">
<rect width="344" height="205" fill="white"/>
</clipPath>
</defs>
</svg>
