<svg width="294" height="281" viewBox="0 0 294 281" fill="none" xmlns="http://www.w3.org/2000/svg">
<g clip-path="url(#clip0_96_3216)">
<path d="M187.518 62.99H171.875V193.802C171.875 195.855 171.463 197.887 170.662 199.783C169.861 201.679 168.687 203.402 167.208 204.853C165.728 206.305 163.972 207.456 162.038 208.241C160.105 209.027 158.033 209.431 155.941 209.431H36.3433V209.581C36.3433 211.633 36.7554 213.665 37.5561 215.562C38.3569 217.458 39.5306 219.181 41.0102 220.632C42.4898 222.083 44.2463 223.234 46.1795 224.02C48.1127 224.805 50.1847 225.209 52.2772 225.209H187.518C189.61 225.209 191.682 224.805 193.615 224.02C195.549 223.234 197.305 222.083 198.785 220.632C200.264 219.181 201.438 217.458 202.239 215.562C203.039 213.665 203.452 211.633 203.452 209.581V78.6188C203.452 74.4738 201.773 70.4985 198.785 67.5676C195.796 64.6366 191.744 62.99 187.518 62.99Z" fill="#F2F2F2"/>
<path d="M261.673 270.871C261.95 270.883 262.224 270.812 262.458 270.666C262.692 270.521 262.875 270.308 262.982 270.058C263.089 269.807 263.115 269.53 263.056 269.264C262.997 268.998 262.856 268.757 262.653 268.572L262.56 268.211C262.572 268.182 262.585 268.153 262.597 268.124C262.876 267.478 263.343 266.927 263.941 266.54C264.538 266.154 265.238 265.949 265.954 265.951C266.669 265.954 267.368 266.164 267.963 266.555C268.557 266.946 269.02 267.5 269.294 268.149C270.39 270.736 271.784 273.329 272.128 276.065C272.279 277.274 272.215 278.5 271.939 279.688C274.512 274.183 275.848 268.2 275.857 262.144C275.857 260.625 275.771 259.106 275.599 257.596C275.456 256.358 275.259 255.129 275.006 253.909C273.627 247.287 270.667 241.08 266.367 235.799C264.286 234.685 262.603 232.973 261.545 230.892C261.162 230.144 260.891 229.346 260.741 228.522C260.976 228.552 261.626 225.045 261.449 224.83C261.776 224.343 262.362 224.101 262.719 223.626C264.496 221.263 266.944 221.676 268.222 224.887C270.952 226.238 270.978 228.48 269.303 230.635C268.238 232.007 268.091 233.862 267.156 235.331C267.252 235.451 267.352 235.568 267.449 235.689C269.207 237.907 270.74 240.289 272.025 242.8C271.712 239.987 272.085 237.141 273.113 234.497C274.154 232.032 276.107 229.956 277.826 227.826C278.281 227.253 278.898 226.826 279.6 226.598C280.303 226.37 281.058 226.351 281.771 226.544C282.484 226.737 283.123 227.133 283.607 227.681C284.091 228.23 284.398 228.908 284.489 229.628C284.493 229.659 284.496 229.69 284.5 229.722C284.244 229.863 283.994 230.013 283.75 230.172C283.442 230.373 283.204 230.661 283.067 230.997C282.929 231.333 282.898 231.703 282.978 232.057C283.058 232.41 283.245 232.732 283.515 232.98C283.784 233.228 284.124 233.39 284.489 233.445L284.527 233.451C284.436 234.354 284.275 235.248 284.045 236.127C286.251 244.493 281.489 247.54 274.691 247.677C274.541 247.752 274.394 247.828 274.244 247.9C275.535 251.488 276.345 255.226 276.653 259.019C276.828 261.257 276.817 263.505 276.622 265.741L276.634 265.662C277.127 263.176 278.479 260.932 280.463 259.31C283.409 256.936 287.572 256.061 290.751 254.153C291.089 253.94 291.482 253.827 291.883 253.826C292.285 253.825 292.678 253.937 293.017 254.148C293.356 254.359 293.626 254.661 293.796 255.017C293.966 255.374 294.028 255.771 293.975 256.162L293.962 256.245C293.488 256.434 293.027 256.652 292.581 256.898C292.325 257.039 292.075 257.189 291.831 257.348C291.524 257.549 291.285 257.837 291.148 258.173C291.01 258.51 290.979 258.879 291.059 259.233C291.139 259.587 291.326 259.908 291.596 260.156C291.865 260.404 292.205 260.566 292.57 260.621L292.608 260.627C292.635 260.631 292.658 260.635 292.685 260.638C291.875 262.535 290.738 264.28 289.325 265.798C287.946 273.101 282.023 273.794 275.687 271.667H275.683C274.988 274.63 273.981 277.514 272.678 280.273H261.942C261.903 280.156 261.869 280.035 261.834 279.918C262.828 279.98 263.826 279.921 264.805 279.745C264.008 278.786 263.212 277.82 262.415 276.861C262.397 276.843 262.381 276.824 262.365 276.804C261.961 276.314 261.553 275.827 261.149 275.336L261.149 275.336C261.127 273.832 261.304 272.331 261.673 270.871Z" fill="#F2F2F2"/>
<path d="M143.421 45.1959C143.813 45.7784 144.33 46.2705 144.935 46.638C145.54 47.0055 146.219 47.2398 146.925 47.3246C147.631 47.4094 148.348 47.3427 149.025 47.1291C149.703 46.9155 150.325 46.5602 150.848 46.0876L173.17 55.9653L177.473 50.5812L150.874 39.0394C149.998 38.234 148.851 37.772 147.65 37.7409C146.449 37.7098 145.279 38.1118 144.36 38.8707C143.441 39.6296 142.838 40.6926 142.665 41.8584C142.492 43.0242 142.761 44.2117 143.421 45.1959Z" fill="#A0616A"/>
<path d="M239.215 51.3552L241.429 63.6602C241.532 64.2343 241.512 64.8232 241.369 65.3891C241.227 65.955 240.965 66.4855 240.602 66.9464C240.238 67.4074 239.78 67.7886 239.257 68.0656C238.734 68.3426 238.158 68.5093 237.565 68.555L199.948 71.4566L155.73 52.0459L161.011 42.2124L199.396 54.1351L239.215 51.3552Z" fill="#FFB800"/>
<path d="M151.174 42.5366H15.9339C7.13385 42.5366 0 49.5339 0 58.1654V189.127C0 197.759 7.13385 204.756 15.9339 204.756H151.174C159.975 204.756 167.108 197.759 167.108 189.127V58.1654C167.108 49.5339 159.975 42.5366 151.174 42.5366Z" fill="#F2F2F2"/>
<path d="M15.9339 45.7507C14.2718 45.7507 12.6259 46.0718 11.0903 46.6957C9.55465 47.3196 8.15934 48.2341 6.98403 49.3869C5.80871 50.5397 4.87639 51.9083 4.24031 53.4145C3.60423 54.9208 3.27685 56.5351 3.27686 58.1655V189.127C3.27686 192.42 4.61036 195.578 6.98403 197.906C9.35769 200.234 12.5771 201.542 15.9339 201.542H102.248C110.335 201.542 118.343 199.98 125.815 196.944C133.286 193.909 140.075 189.459 145.794 183.85C151.512 178.241 156.049 171.582 159.144 164.253C162.238 156.925 163.831 149.07 163.831 141.138V58.1655C163.831 56.5351 163.504 54.9208 162.868 53.4145C162.232 51.9083 161.299 50.5397 160.124 49.3869C158.949 48.2341 157.554 47.3196 156.018 46.6957C154.482 46.0718 152.836 45.7507 151.174 45.7507H15.9339Z" fill="white"/>
<path d="M121.36 85.4955H45.4524C44.7559 85.4955 44.0879 85.2241 43.5954 84.741C43.1029 84.2579 42.8262 83.6027 42.8262 82.9195C42.8262 82.2363 43.1029 81.5811 43.5954 81.098C44.0879 80.6149 44.7559 80.3435 45.4524 80.3435H121.36C122.057 80.3435 122.725 80.6149 123.217 81.098C123.71 81.5811 123.986 82.2363 123.986 82.9195C123.986 83.6027 123.71 84.2579 123.217 84.741C122.725 85.2241 122.057 85.4955 121.36 85.4955Z" fill="#094EFF"/>
<path d="M121.36 140.427H45.4524C44.7559 140.427 44.0879 140.156 43.5954 139.673C43.1029 139.19 42.8262 138.535 42.8262 137.851C42.8262 137.168 43.1029 136.513 43.5954 136.03C44.0879 135.547 44.7559 135.275 45.4524 135.275H121.36C122.057 135.275 122.725 135.547 123.217 136.03C123.71 136.513 123.986 137.168 123.986 137.851C123.986 138.535 123.71 139.19 123.217 139.673C122.725 140.156 122.057 140.427 121.36 140.427Z" fill="#094EFF"/>
<path d="M152.185 112.979H14.6282C13.9317 112.979 13.2637 112.708 12.7712 112.225C12.2786 111.742 12.002 111.087 12.002 110.403C12.002 109.72 12.2786 109.065 12.7712 108.582C13.2637 108.099 13.9317 107.827 14.6282 107.827H152.185C152.881 107.827 153.549 108.099 154.042 108.582C154.534 109.065 154.811 109.72 154.811 110.403C154.811 111.087 154.534 111.742 154.042 112.225C153.549 112.708 152.881 112.979 152.185 112.979Z" fill="#094EFF"/>
<path d="M234.462 105.591L220.759 134.226L273.473 128.989L262.469 101.5L234.462 105.591Z" fill="#A0616A"/>
<path d="M246.718 270.172L241.72 270.131L239.508 250.781L246.884 250.843L246.718 270.172Z" fill="#A0616A"/>
<path d="M230.709 277.968C230.705 278.549 230.935 279.108 231.351 279.522C231.766 279.937 232.332 280.173 232.924 280.179L242.861 280.26L244.601 276.801L245.24 280.277L248.989 280.311L248.043 267.912L246.738 267.827L241.417 267.467L239.701 267.354L239.671 270.863L231.688 276.173C231.389 276.372 231.144 276.64 230.973 276.952C230.803 277.265 230.712 277.613 230.709 277.968Z" fill="#2F2E41"/>
<path d="M191.408 270.195L186.643 268.714L190.324 249.582L197.357 251.765L191.408 270.195Z" fill="#A0616A"/>
<path d="M173.77 273.032C173.592 273.586 173.645 274.187 173.918 274.703C174.191 275.219 174.661 275.608 175.226 275.784L184.7 278.725L187.398 275.921L186.968 279.428L190.542 280.54L193.351 268.416L192.129 267.959L187.151 266.081L185.544 265.479L184.465 268.823L175.244 271.599C174.898 271.703 174.584 271.888 174.327 272.138C174.07 272.387 173.879 272.694 173.77 273.032Z" fill="#2F2E41"/>
<path d="M271.072 120.936L223.143 129.551C223.143 129.551 215.455 135.191 217.511 137.211C219.568 139.231 219.887 138.918 218.536 140.243C217.185 141.569 214.263 143.34 214.235 144.5C214.206 145.659 192.757 197.669 192.757 197.669C192.757 197.669 195.14 196.501 193.353 198.254C191.566 200.007 191.566 201.456 191.566 201.456L183.225 256.692L196.771 257.475L210.035 207.116L239.622 160.071C239.622 160.071 242.557 202.023 242.681 204.814C242.804 207.604 244.591 204.098 242.804 207.604C241.016 211.11 239.825 208.773 241.016 211.11C242.208 213.448 236.724 261.037 236.724 261.037H249.088L275.607 162.398C275.607 162.398 285.042 134.198 271.072 120.936Z" fill="#2F2E41"/>
<path d="M256.953 42.0375L237.753 40.0808L232.779 46.4151L226.984 49.4424C224.532 50.7234 222.508 52.6702 221.154 55.0499C219.8 57.4296 219.173 60.1415 219.349 62.8612L226.121 101.5C226.121 101.5 220.401 114.134 224.334 117.278C228.267 120.423 221.293 128.211 229.696 124.291C238.099 120.372 274.38 124.875 274.38 124.875L266.635 103.253L272.421 82.0065L273.058 64.1913C273.177 60.8623 272.17 57.5882 270.193 54.8793C268.217 52.1704 265.382 50.179 262.131 49.2154L261.322 48.9756L256.953 42.0375Z" fill="#FFB800"/>
<path d="M283.385 27.6007C283.511 32.9086 281.488 38.0483 278.583 42.5626C277.72 39.9272 276.168 37.5286 274.549 35.2421C275.365 40.1885 274.496 45.2607 272.077 49.6738C271.991 49.7337 271.903 49.7892 271.812 49.8403C269.444 51.2376 266.441 51.8035 263.88 50.7943C269.173 45.1979 269.846 35.9253 265.409 29.648C264.152 27.8668 262.527 26.2915 261.749 24.2644C260.52 21.0301 261.702 17.4691 262.447 14.097C263.143 10.9586 263.265 7.22393 261.119 4.92389C261.348 4.60247 261.66 4.34661 262.024 4.18254C262.387 4.01847 262.788 3.95209 263.186 3.9902C264.51 4.17358 265.473 5.30194 266.087 6.46409C266.7 7.6262 267.105 8.91422 267.96 9.91799C269.543 11.7968 272.24 12.241 274.513 13.2311C280.017 15.6357 283.253 21.6943 283.385 27.6007Z" fill="#2F2E41"/>
<path d="M141.59 280.305C141.59 280.396 141.608 280.486 141.644 280.571C141.679 280.655 141.731 280.732 141.797 280.797C141.863 280.862 141.942 280.913 142.028 280.948C142.114 280.982 142.206 281 142.299 281H293.207C293.395 281 293.576 280.927 293.709 280.796C293.842 280.666 293.916 280.489 293.916 280.305C293.916 280.12 293.842 279.943 293.709 279.813C293.576 279.682 293.395 279.609 293.207 279.609H142.299C142.206 279.609 142.114 279.627 142.028 279.661C141.942 279.696 141.863 279.748 141.797 279.812C141.731 279.877 141.679 279.954 141.644 280.038C141.608 280.123 141.59 280.213 141.59 280.305Z" fill="#CCCCCC"/>
<path d="M284.573 150.624C287.534 150.624 289.935 148.269 289.935 145.364C289.935 142.459 287.534 140.105 284.573 140.105C281.612 140.105 279.211 142.459 279.211 145.364C279.211 148.269 281.612 150.624 284.573 150.624Z" fill="#FFB800"/>
<path d="M237.057 24.5657C237.372 23.486 235.204 30.086 236.25 30.2052C241.014 30.7413 247.555 33.5322 250.873 34.8342C251.022 34.8172 251.172 34.8001 251.317 34.7789C251.673 34.7406 252.02 34.6853 252.363 34.6214C260.089 33.1875 263.061 21.5458 263.061 21.4394C263.061 20.9161 261.78 6.54172 259.763 6.329C259.233 6.27261 258.7 6.2442 258.167 6.2439H253.161C252.125 6.02495 251.075 5.87568 250.019 5.79713H250.01C239.932 5.044 231.986 11.069 232.728 18.4003C232.733 18.4088 232.742 18.4173 232.746 18.4258C232.961 18.7407 233.15 19.0386 233.317 19.3236C233.48 19.5917 233.616 19.847 233.735 20.0895C234.653 21.9617 232.292 24.3175 233.858 24.7572C235.94 25.3421 228.381 44.5641 236.623 44.5641C232.614 45.6821 236.19 27.5442 237.057 24.5657Z" fill="#2F2E41"/>
<path d="M246.054 35.8445C252.599 35.8445 257.906 30.6395 257.906 24.219C257.906 17.7984 252.599 12.5935 246.054 12.5935C239.508 12.5935 234.201 17.7984 234.201 24.219C234.201 30.6395 239.508 35.8445 246.054 35.8445Z" fill="#A0616A"/>
<path d="M232.729 19.0343C232.926 19.1364 233.12 19.23 233.317 19.3236C233.524 19.4214 233.731 19.5193 233.937 19.6087C237.906 21.3745 241.136 21.5702 243.097 19.0343C243.149 17.6999 243.455 16.3868 243.998 15.1622C243.902 16.5307 244.269 17.8919 245.044 19.0343H248.99C253.056 21.6808 255.144 21.9574 252.322 30.646C251.535 33.0671 248.407 47.1553 249.638 49.2445C249.994 49.2062 253.781 33.7753 254.124 33.7114C261.851 32.2775 266.76 19.7916 266.131 19.0853C266.134 17.0767 265.664 15.0947 264.756 13.2943C263.607 11.0133 261.817 9.10272 259.596 7.78839C258.272 7.15884 256.892 6.65034 255.473 6.26936C255.438 6.26084 255.407 6.25232 255.372 6.24383C254.937 6.12894 254.493 6.02257 254.049 5.93321C253.132 5.74328 252.205 5.60548 251.271 5.52049C251.206 5.51623 251.14 5.51196 251.078 5.51196C250.705 5.51282 250.34 5.61124 250.019 5.79707C250.015 5.79707 250.015 5.8013 250.01 5.8013C249.781 5.93274 249.581 6.10777 249.421 6.31614C249.14 6.66674 248.989 7.10005 248.99 7.54583H244.595C244.433 7.54583 244.27 7.55008 244.107 7.55858C241.174 7.65691 238.384 8.82537 236.282 10.8353C234.181 12.8452 232.92 15.552 232.746 18.4258C232.733 18.63 232.729 18.83 232.729 19.0343Z" fill="#2F2E41"/>
<path d="M258.643 15.3179C262.955 15.3179 266.451 11.8888 266.451 7.65893C266.451 3.42902 262.955 0 258.643 0C254.33 0 250.834 3.42902 250.834 7.65893C250.834 11.8888 254.33 15.3179 258.643 15.3179Z" fill="#2F2E41"/>
<path d="M284.633 147.533C285.014 146.943 285.26 146.28 285.354 145.588C285.448 144.896 285.388 144.193 285.177 143.526C284.966 142.859 284.611 142.245 284.134 141.727C283.658 141.208 283.073 140.797 282.419 140.522L282.457 116.504L275.687 114.86L275.853 143.388C275.464 144.502 275.504 145.718 275.967 146.805C276.43 147.892 277.284 148.774 278.366 149.285C279.448 149.796 280.684 149.9 281.839 149.577C282.994 149.254 283.988 148.527 284.633 147.533Z" fill="#A0616A"/>
<path d="M251.104 59.3015L261.641 52.2782C262.132 51.9505 262.688 51.7273 263.273 51.6228C263.858 51.5184 264.458 51.535 265.036 51.6716C265.614 51.8083 266.156 52.0619 266.628 52.4162C267.1 52.7705 267.491 53.2177 267.776 53.7291L285.89 86.1967L285.96 133.713L274.65 133.018L270.008 93.7886L251.104 59.3015Z" fill="#FFB800"/>
<path d="M170.185 167.062H57.5805C55.1313 167.062 52.7823 168.017 51.0505 169.715C49.3186 171.414 48.3457 173.718 48.3457 176.12C48.3457 178.523 49.3186 180.826 51.0505 182.525C52.7823 184.224 55.1313 185.178 57.5805 185.178H170.185C172.634 185.178 174.983 184.224 176.715 182.525C178.447 180.826 179.42 178.523 179.42 176.12C179.42 173.718 178.447 171.414 176.715 169.715C174.983 168.017 172.634 167.062 170.185 167.062Z" fill="#094EFF"/>
<path d="M170.185 185.762H57.5806C54.9733 185.762 52.4729 184.747 50.6293 182.938C48.7857 181.13 47.75 178.677 47.75 176.12C47.75 173.563 48.7857 171.11 50.6293 169.302C52.4729 167.494 54.9733 166.478 57.5806 166.478H170.185C172.792 166.478 175.293 167.494 177.136 169.302C178.98 171.11 180.016 173.563 180.016 176.12C180.016 178.677 178.98 181.13 177.136 182.938C175.293 184.747 172.792 185.762 170.185 185.762ZM57.5806 167.647C55.2894 167.647 53.092 168.539 51.4719 170.128C49.8518 171.718 48.9416 173.873 48.9416 176.12C48.9416 178.367 49.8518 180.523 51.4719 182.112C53.092 183.701 55.2894 184.594 57.5806 184.594H170.185C172.476 184.594 174.674 183.701 176.294 182.112C177.914 180.523 178.824 178.367 178.824 176.12C178.824 173.873 177.914 171.718 176.294 170.128C174.674 168.539 172.476 167.647 170.185 167.647H57.5806Z" fill="#FFB800"/>
<path d="M176.825 206.592H127.132C126.436 206.592 125.768 206.32 125.275 205.837C124.783 205.354 124.506 204.699 124.506 204.016C124.506 203.332 124.783 202.677 125.275 202.194C125.768 201.711 126.436 201.44 127.132 201.44H176.825C177.521 201.44 178.189 201.711 178.682 202.194C179.175 202.677 179.451 203.332 179.451 204.016C179.451 204.699 179.175 205.354 178.682 205.837C178.189 206.32 177.521 206.592 176.825 206.592Z" fill="#FFB800"/>
</g>
<defs>
<clipPath id="clip0_96_3216">
<rect width="294" height="281" fill="white"/>
</clipPath>
</defs>
</svg>
